<svg id="svg" version="1.1" xmlns="http://www.w3.org/2000/svg" xmlns:xlink="http://www.w3.org/1999/xlink" width="400" height="260.431654676259" viewBox="0, 0, 400,260.431654676259"><g id="svgg"><path id="path0" d="M0.000 45.342 L 0.000 90.684 60.002 90.684 C 95.812 90.684,120.341 90.781,120.841 90.924 C 122.041 91.268,121.979 93.988,121.897 44.691 L 121.823 -0.130 121.758 45.016 C 121.707 80.925,121.627 90.163,121.368 90.163 C 121.108 90.163,121.056 81.009,121.110 45.081 L 121.177 0.000 60.589 0.000 L 0.000 0.000 0.000 45.342 M201.699 45.147 C 201.706 90.185,201.705 90.294,201.179 90.651 C 200.207 91.309,200.532 91.843,201.529 91.226 L 202.407 90.684 301.203 90.684 L 400.000 90.684 400.000 45.342 L 400.000 0.000 300.845 -0.000 L 201.691 -0.000 201.699 45.147 M200.651 169.341 C 200.651 169.462,200.886 169.773,201.173 170.033 C 201.690 170.501,201.694 170.835,201.694 215.545 L 201.694 260.586 300.847 260.586 L 400.000 260.586 400.000 215.244 L 400.000 169.902 301.009 169.902 C 213.335 169.902,201.981 169.858,201.694 169.511 C 201.346 169.092,200.651 168.978,200.651 169.341 M60.391 169.837 L 0.000 169.903 0.000 215.245 L 0.000 260.586 60.588 260.586 L 121.176 260.586 121.171 215.571 C 121.168 185.455,121.254 170.527,121.430 170.468 C 121.607 170.409,121.715 185.245,121.758 215.548 L 121.823 260.717 121.897 216.026 C 121.974 169.814,121.971 169.598,121.226 169.706 C 120.982 169.742,93.606 169.801,60.391 169.837 " stroke="none" fill="#0464ac" fill-rule="evenodd"></path><path id="path1" d="M123.194 45.720 C 123.140 82.816,123.063 91.504,122.788 91.779 C 122.513 92.054,111.042 92.130,61.225 92.184 L 0.000 92.251 0.000 103.717 L -0.000 115.183 72.821 115.116 C 132.154 115.061,145.704 114.986,145.980 114.710 C 146.256 114.435,146.332 103.690,146.386 57.186 L 146.453 -0.000 134.857 -0.000 L 123.262 0.000 123.194 45.720 M176.938 57.320 C 176.938 113.724,176.946 114.644,177.442 114.909 C 177.787 115.094,212.938 115.179,288.973 115.179 L 400.000 115.179 400.000 103.713 L 400.000 92.248 300.248 92.248 C 223.010 92.248,200.425 92.177,200.182 91.935 C 199.942 91.694,199.870 81.094,199.870 45.811 L 199.870 0.000 188.404 0.000 L 176.938 0.000 176.938 57.320 M177.310 145.949 C 176.990 146.303,176.938 154.338,176.938 203.473 L 176.938 260.586 188.404 260.586 L 199.870 260.586 199.870 214.885 C 199.870 176.491,199.927 169.137,200.227 168.888 C 200.493 168.667,226.142 168.593,300.292 168.597 L 400.000 168.603 400.000 157.136 L 400.000 145.669 288.841 145.603 C 187.848 145.543,177.649 145.575,177.310 145.949 M0.000 157.136 L 0.000 168.604 61.075 168.597 C 94.666 168.594,122.329 168.659,122.548 168.743 C 123.246 169.011,123.250 169.291,123.254 215.309 L 123.257 260.586 134.855 260.586 L 146.453 260.586 146.386 203.378 C 146.327 152.859,146.274 146.141,145.928 145.923 C 145.684 145.769,118.174 145.674,72.769 145.672 L 0.000 145.668 0.000 157.136 " stroke="none" fill="#fcd404" fill-rule="evenodd"></path><path id="path2" d="M146.386 57.186 C 146.332 103.690,146.256 114.435,145.980 114.710 C 145.704 114.986,132.154 115.061,72.821 115.116 L 0.000 115.183 0.000 130.425 L 0.000 145.668 72.769 145.672 C 118.174 145.674,145.684 145.769,145.928 145.923 C 146.274 146.141,146.327 152.859,146.386 203.378 L 146.453 260.586 161.696 260.586 L 176.938 260.586 176.938 203.420 C 176.938 155.578,176.996 146.205,177.292 145.959 C 177.553 145.742,206.729 145.666,288.823 145.667 L 400.000 145.669 400.000 130.424 L 400.000 115.179 288.973 115.179 C 212.938 115.179,177.787 115.094,177.442 114.909 C 176.946 114.644,176.938 113.724,176.938 57.320 L 176.938 0.000 161.696 0.000 L 146.453 0.000 146.386 57.186 " stroke="none" fill="#dc0b14" fill-rule="evenodd"></path><path id="path3" d="M121.951 45.016 C 121.947 94.024,122.015 91.261,120.825 90.920 C 120.346 90.782,94.973 90.684,60.002 90.684 L 0.000 90.684 0.000 91.467 L 0.000 92.251 61.225 92.184 C 111.042 92.130,122.513 92.054,122.788 91.779 C 123.063 91.504,123.140 82.816,123.194 45.720 L 123.262 -0.000 122.608 -0.000 L 121.954 0.000 121.951 45.016 M199.870 45.811 C 199.870 81.094,199.942 91.694,200.182 91.935 C 200.425 92.177,223.010 92.248,300.248 92.248 L 400.000 92.248 400.000 91.466 L 400.000 90.684 301.203 90.684 L 202.407 90.684 201.529 91.226 L 200.651 91.769 200.651 45.884 C 200.651 5.272,200.607 0.000,200.261 0.000 C 199.915 0.000,199.870 5.264,199.870 45.811 M60.521 168.534 L -0.000 168.600 0.000 169.254 L 0.000 169.908 60.834 169.840 C 121.475 169.772,121.668 169.774,121.807 170.293 C 121.884 170.580,121.949 191.013,121.951 215.700 L 121.954 260.586 122.606 260.586 L 123.257 260.586 123.254 215.309 C 123.252 190.407,123.181 169.776,123.097 169.463 C 122.963 168.960,121.639 168.222,121.199 168.403 C 121.113 168.439,93.808 168.498,60.521 168.534 M200.323 168.791 C 199.673 169.509,199.612 260.586,200.261 260.586 C 200.607 260.586,200.651 255.331,200.651 214.853 C 200.651 166.801,200.619 168.216,201.694 169.511 C 201.981 169.858,213.335 169.902,301.009 169.902 L 400.000 169.902 400.000 169.251 L 400.000 168.599 301.303 168.596 C 247.020 168.595,202.194 168.525,201.691 168.442 C 200.989 168.326,200.670 168.407,200.323 168.791 " stroke="none" fill="#2b6ca4" fill-rule="evenodd"></path><path id="path4" d="M121.173 44.669 C 121.173 69.237,121.101 89.524,121.014 89.751 C 120.911 90.021,121.000 90.163,121.275 90.163 C 121.658 90.163,121.694 86.314,121.694 45.081 C 121.694 15.201,121.606 0.000,121.433 0.000 C 121.261 0.000,121.173 15.063,121.173 44.669 M200.651 45.504 L 200.651 91.008 201.190 90.651 C 201.486 90.454,201.721 90.205,201.711 90.098 C 201.702 89.990,201.694 69.674,201.694 44.951 C 201.694 0.174,201.692 0.000,201.173 0.000 C 200.653 0.000,200.651 0.174,200.651 45.504 M200.651 215.074 C 200.651 260.413,200.653 260.586,201.173 260.586 C 201.692 260.586,201.694 260.413,201.694 215.545 C 201.694 170.835,201.690 170.501,201.173 170.033 C 200.652 169.561,200.651 169.577,200.651 215.074 M121.151 170.532 C 120.901 170.782,121.184 260.586,121.435 260.586 C 121.605 260.586,121.694 245.215,121.694 215.505 C 121.694 190.710,121.596 170.423,121.477 170.423 C 121.357 170.423,121.211 170.472,121.151 170.532 " stroke="none" fill="#045cb4" fill-rule="evenodd"></path></g></svg>